# xmcd CD database file
#
# Track frame offsets:
#	150
#	29385
#	49185
#	62510
#	81207
#	106067
#	127420
#	149450
#	172207
#	188800
#
# Disc length: 2798 seconds
#
# Revision: 26
# Processed by: cddbd v1.5.1PL0 Copyright (c) Steve Scherf et al.
# Submitted via: CDex 1.51
#
DISCID=910aec0a
DTITLE=The Eagles - Greatest Hits Volume 2
DYEAR=1982
DGENRE=Rock
TTITLE0=Hotel California
TTITLE1=Heartache Tonight
TTITLE2=Seven Bridges Road
TTITLE3=Victim Of Love
TTITLE4=The Sad Cafe
TTITLE5=Life In The Fast Lane
TTITLE6=I Can't Tell You Why
TTITLE7=New Kid In Town
TTITLE8=The Long Run
TTITLE9=After The Thrill Is Gone
EXTD=YEAR: 1982
EXTT0=
EXTT1=
EXTT2=
EXTT3=
EXTT4=
EXTT5=
EXTT6=
EXTT7=
EXTT8=
EXTT9=
PLAYORDER=
